<?xml version="1.0" standalone="no"?>
<!DOCTYPE svg PUBLIC "-//W3C//DTD SVG 20010904//EN"
 "http://www.w3.org/TR/2001/REC-SVG-20010904/DTD/svg10.dtd">
<svg version="1.0" xmlns="http://www.w3.org/2000/svg"
 width="520.000000pt" height="520.000000pt" viewBox="0 0 520.000000 520.000000"
 preserveAspectRatio="xMidYMid meet">
<metadata>
Created by potrace 1.14, written by Peter Selinger 2001-2017
</metadata>
<g transform="translate(0.000000,520.000000) scale(0.100000,-0.100000)"
fill="#000000" stroke="none">
<path d="M536 5043 c-78 -120 -135 -263 -161 -403 -10 -53 -13 -322 -5 -377 5
-27 11 -71 14 -98 6 -42 29 -150 65 -305 7 -30 73 -251 86 -288 15 -43 -152
66 -243 158 -126 127 -200 237 -267 395 l-25 60 4 -75 c6 -94 11 -127 26 -165
6 -16 11 -31 11 -32 -1 -10 29 -79 60 -140 69 -134 187 -284 333 -423 122
-115 131 -123 221 -192 6 -4 48 -37 95 -73 182 -139 270 -219 358 -325 34 -39
68 -92 76 -118 15 -43 15 -48 -2 -81 -12 -24 -36 -46 -73 -66 -48 -27 -63 -30
-140 -29 -79 0 -91 3 -170 42 -46 22 -100 55 -119 73 -19 18 -45 42 -58 53
l-23 20 15 -40 c40 -113 109 -192 216 -248 63 -33 177 -72 236 -80 16 -3 43
-7 59 -10 68 -13 151 -22 272 -30 28 -2 56 -7 62 -10 6 -4 11 -3 11 2 0 13
130 -14 200 -42 128 -52 268 -169 378 -316 58 -78 159 -242 196 -322 15 -32
31 -58 36 -58 4 0 6 19 4 43 -4 39 -7 64 -21 142 -11 64 -57 184 -105 275
-100 189 -267 380 -483 552 -55 44 -109 87 -121 96 -11 10 -36 28 -55 41 -138
99 -365 340 -481 513 -192 287 -242 482 -173 679 39 110 130 237 263 367 86
83 88 94 12 67 -147 -52 -319 -180 -416 -311 -12 -16 -24 -27 -26 -24 -2 3
-25 51 -51 107 -46 100 -91 230 -102 288 -2 17 -7 41 -10 55 -36 173 -19 405
44 635 11 38 18 71 17 72 -2 2 -20 -23 -40 -54z"/>
<path d="M4624 5073 c9 -30 46 -176 51 -203 21 -117 27 -339 12 -451 -15 -114
-71 -281 -134 -409 l-38 -76 -55 66 c-100 121 -249 229 -380 274 -25 9 -51 16
-59 16 -7 0 34 -48 93 -106 58 -59 106 -110 106 -115 0 -4 6 -14 14 -22 39
-39 141 -229 129 -240 -2 -3 1 -16 8 -28 23 -43 10 -219 -21 -294 -4 -11 -18
-45 -30 -75 -12 -30 -47 -97 -77 -148 -145 -248 -347 -465 -628 -675 -219
-164 -402 -350 -517 -526 -113 -173 -169 -338 -183 -534 -3 -49 1 -44 69 86
68 131 92 170 165 267 62 83 177 200 222 227 16 10 29 21 29 25 0 4 5 8 10 8
6 0 28 11 48 24 78 49 163 70 327 81 168 11 201 15 310 35 28 5 60 12 73 15
12 3 32 7 43 10 155 34 291 133 348 255 41 85 39 98 -6 54 -132 -124 -297
-178 -424 -137 -120 39 -151 114 -90 215 51 84 211 243 349 348 92 69 137 106
140 112 2 5 8 8 14 8 5 0 15 6 22 13 8 6 38 32 67 57 82 68 261 247 315 315
43 54 154 219 154 229 0 2 12 30 27 62 15 33 28 64 29 69 1 6 10 33 19 60 19
60 32 235 14 195 -6 -14 -12 -29 -13 -35 -1 -5 -17 -39 -36 -75 -63 -124 -171
-268 -255 -341 -22 -19 -47 -41 -56 -49 -36 -31 -48 -39 -103 -70 -31 -18 -59
-31 -61 -28 -2 2 16 71 41 153 24 83 46 163 49 179 3 16 8 32 10 36 4 6 7 21
19 80 5 26 7 34 25 135 47 270 28 535 -51 715 -39 88 -52 115 -57 120 -8 7
-29 40 -48 78 -18 34 -38 44 -29 15z"/>
<path d="M3473 1847 c-4 -6 -24 -24 -43 -38 -120 -90 -245 -243 -309 -380 -53
-115 -73 -210 -70 -334 1 -55 -1 -113 -6 -128 -33 -119 -206 -375 -366 -540
l-79 -82 -85 89 c-160 167 -301 375 -354 521 -6 17 -10 77 -9 135 2 189 -40
321 -157 485 -68 95 -253 275 -281 275 -5 0 -4 -4 2 -8 28 -19 104 -126 131
-183 31 -66 59 -146 67 -189 5 -30 17 -97 23 -125 8 -45 15 -137 18 -250 1
-66 6 -133 10 -150 27 -105 153 -321 288 -493 86 -110 327 -362 347 -362 18 0
240 229 323 332 41 51 103 136 139 189 64 95 168 294 168 321 0 8 3 18 6 21 4
4 8 62 10 129 5 208 12 271 50 418 34 129 84 230 147 295 29 30 52 65 43 65
-3 0 -9 -6 -13 -13z"/>
</g>
</svg>
