<?xml version="1.0" encoding="UTF-8"?>
<svg width="260px" height="252px" viewBox="0 0 260 252" version="1.1" xmlns="http://www.w3.org/2000/svg" xmlns:xlink="http://www.w3.org/1999/xlink">
    <title>v</title>
    <g id="Page-1" stroke="none" stroke-width="1" fill="none" fill-rule="evenodd">
        <g id="v" transform="translate(-0.000000, 0.000000)" fill="#FFFFFF" fill-rule="nonzero">
            <path d="M145.736403,182.165605 C145.403048,156.685584 166.404427,136.831022 183.57222,124.587376 C200.573335,112.178275 218.907873,88.518255 219.241228,72.9655149 C219.741261,57.5782295 202.906822,44.0109454 199.739948,41.1982159 C207.240439,42.5218534 217.574452,47.9818579 225.741655,59.398231 C231.408693,48.1473126 240.742638,30.2782068 230.408627,0 C242.576092,16.7109229 247.409744,34.414574 232.742114,78.2600648 C243.409481,74.2891524 255.576947,60.2255043 259.910564,46.4927657 C261.577339,68.0018745 239.575896,88.8491645 224.908266,99.7691735 C210.240637,110.523728 198.239849,122.27101 200.406659,127.400105 C202.406789,132.694655 215.740998,138.320114 229.908594,123.098284 C226.241686,135.67284 218.074485,142.456482 186.072384,143.945574 C161.570776,145.103756 148.569922,176.7056 145.736403,182.165605 Z" id="&lt;Path&gt;"></path>
            <path d="M114.269453,182.165605 C114.433186,156.685584 93.4346098,136.831022 76.2691072,124.587376 C59.27026,112.178275 41.1048252,88.518255 40.6048591,72.9655149 C40.2715484,57.5782295 56.9370849,44.0109454 60.1035368,41.1982159 C52.6040455,42.5218534 42.2714129,47.9818579 34.1053,59.398231 C28.4390176,48.1473126 19.1063171,30.2782068 29.4389498,0 C17.2731081,16.7109229 12.4401026,34.414574 27.1057747,78.2600648 C16.4398314,74.2891524 4.27398977,60.2255043 0.10760565,46.4927657 C-1.72560336,68.0018745 20.2729048,88.8491645 34.9385768,99.7691735 C49.6042489,110.523728 61.6034351,122.27101 59.6035707,127.400105 C57.437051,132.694655 44.1046219,138.320114 29.9389159,123.098284 C33.6053339,135.67284 41.9381021,142.456482 73.7692768,143.945574 C98.2676153,145.103756 111.266734,176.7056 114.269453,182.165605 Z" id="&lt;Path&gt;"></path>
            <path d="M175.541401,162.292994 C164.280255,170.527502 149.707007,185.349615 152.853503,205.606503 C150.866242,215.487912 136.955414,232.780378 130,238.544534 C123.044586,232.780378 109.133758,215.487912 107.312102,205.606503 C110.458599,185.349615 95.7197453,170.527502 84.4585988,162.292994 C92.2420383,170.198122 98.0382167,178.762008 97.8726116,207.747476 C104.33121,227.180912 122.878981,245.62621 130,251.719745 C130,251.719745 130,251.719745 130,251.719745 C130,251.719745 130,251.719745 130,251.719745 C137.121019,245.62621 155.66879,227.180912 162.127389,207.747476 C161.961784,178.762008 167.757962,170.198122 175.541401,162.292994 Z" id="&lt;Path&gt;"></path>
        </g>
    </g>
</svg>